# xmcd
#
# Track frame offsets:
#	150
#	49973
#	70583
#	94298
#	150466
#	175603
#	203411
#
# Disc length: 2995 seconds
#
# Revision: 0
# Processed by: cddbd v1.5.1PL2 Copyright (c) Steve Scherf et al.
# Submitted via: EasyCDDAExtractor 8.2.3.1
#
DISCID=4f0bb107
DTITLE=Paul Barrere and Fred Tackett - Johnny D's - Somerville, MA 04-18-99 disc
DTITLE=2
DYEAR=1999
DGENRE=Blues
TTITLE0=Sailin' Shoes
TTITLE1=Eula
TTITLE2=Old Folks Boogie
TTITLE3=Dixie Chicken
TTITLE4=Willin'
TTITLE5=Feats Don't Fail Me Now
TTITLE6=Fool Yourself
EXTD=
EXTT0=
EXTT1=
EXTT2=
EXTT3=
EXTT4=
EXTT5=
EXTT6=
PLAYORDER=
